<?xml version="1.0" encoding="iso-8859-1"?>
<!-- Generator: Adobe Illustrator 19.0.0, SVG Export Plug-In . SVG Version: 6.00 Build 0)  -->
<svg xmlns="http://www.w3.org/2000/svg" xmlns:xlink="http://www.w3.org/1999/xlink" version="1.1" id="Capa_1" x="0px" y="0px" viewBox="0 0 418.4 418.4" style="enable-background:new 0 0 418.4 418.4;" xml:space="preserve" width="512px" height="512px">
<g>
	<g>
		<path d="M318.697,360l-48-84.8c2.4-0.8,4.8-1.6,6.4-2.4c3.2-1.6,3.6-2,7.6,0.4c2.4,1.6,8.4,2,10.8-2c1.6-2.8,0-8-0.4-8.4l-48-84    c2.4-0.8,4.4-1.6,5.6-2.4c3.2-1.6,3.6-2,7.6,0.4c0.8,0.4,4.8,2,7.6,0c5.6-4.8,2.8-10.4,2.8-10.8l-55.6-94.8    c-0.4-0.8-2.8-2.8-6.4-2.8c-3.2,0-6,2.4-6.4,3.2l-54.4,95.6c0,0.4-2.8,7.2,2.8,10.8c2.4,1.6,6.8,0.4,7.6,0c3.6-2,4.4-2,7.6-0.4    c1.6,0.8,3.6,1.6,5.6,2.4c0,0-36,62.8-48,84c-2.8,4.8,2.8,10,3.2,10c2.4,1.2,4.8,1.6,7.2,0.4c3.6-2.4,4.4-2,7.6-0.4    c1.6,0.8,4,1.6,6.4,2.4l-48.4,85.2c-2.8,5.6,2.8,10,3.2,10c2.4,1.2,4.8,1.6,7.2,0.4c3.6-2.4,4.4-2,7.6-0.4c2.8,1.6,6,3.2,11.2,3.2    c2.8,0,6.4-0.8,10.4-2.4l0.8-0.4c3.6-2.4,4.4-2,7.6-0.4c2.8,1.6,6,3.2,11.2,3.2c2.8,0,6.4-0.8,10.4-2.4l0.8-0.4    c3.6-2.4,4.4-2,7.6-0.4c1.6,0.8,4,2,6.8,2.4v37.2c0,4,3.2,7.2,7.2,7.2h37.2c4,0,7.2-3.2,7.2-7.2v-38.8c2.4-0.8,4.4-1.6,5.6-2.4    c3.2-1.6,3.6-2,7.6,0.4l0.8,0.4c4,1.6,7.6,2.4,10.4,2.4c4.8,0,8.4-2,11.2-3.2c3.2-1.6,3.6-2,7.6,0.4l0.8,0.4    c4,1.6,7.6,2.4,10.4,2.4c4.8,0,8.4-2,11.2-3.2c3.2-1.6,3.6-2,7.6,0.4c2.4,1.6,4.8,0.8,7.2-0.4    C316.297,370,321.897,366.4,318.697,360z M274.697,257.6c-1.6,0.4-3.2,1.2-4.8,2c-3.2,1.6-4.4,2.4-9.2,0.4    c-3.6-1.6-6.8-0.4-9.6,3.2c-0.8,1.2-1.6,4.8,0.4,8.4l8,14.4c-38.8-5.2-75.2-32.8-93.2-48.8c32.8-4.8,64-24.8,77.2-34    L274.697,257.6z M208.697,89.6l41.2,72c-1.6,0.4-3.2,1.2-4.4,2c-3.2,1.6-4.4,2.4-9.2,0.4c0,0-4-2-8,2.4c-3.2,3.6-1.2,8-1.2,8    l1.2,2.4c-17.6-12.4-34.4-34.4-42.8-46.8L208.697,89.6z M190.297,174.4c0,0,2-4.8-1.2-8c-4-4.4-8-2.4-8-2.4c-4.8,2-6,1.2-9.2-0.4    c-1.6-0.8-2.8-1.6-4.4-2l10-18c10.4,14,30.8,39.6,52.8,50.8c-14.4,9.6-41.2,24-67.6,27.6L190.297,174.4z M165.497,271.6    c0.4-0.4,1.6-4.8,0.4-7.6c-1.6-3.6-6-5.2-9.6-4c-4.8,2-6,1.2-9.2-0.4c-1.6-0.8-3.2-1.6-4.8-2l8.4-14.8c14.8,14,52.4,46.4,97.2,56    c-25.2,11.6-69.2,28-114.4,28.4L165.497,271.6z M285.497,357.6c-9.6-5.2-15.6-3.2-20.8-0.4c-3.2,1.6-4.4,2.4-9.2,0.4    c-9.2-5.2-15.2-3.2-20.8-0.4c-2.4,1.2-3.6,1.6-5.2,1.6c0,0-8,0.4-8,7.2c0,9.2,0,36.8,0,36.8h-24.8V366c0-6-6-8.4-9.2-7.2    c-2.4,0.4-3.6,0-6-1.6c-5.2-2.8-11.2-4.8-20.8,0.4c-4.8,2-6,1.2-9.2-0.4c-5.2-2.8-11.2-4.8-20.8,0.4c-4.8,2-6,1.2-9.2-0.4    c-1.6-0.8-3.2-1.6-4.8-2l7.2-12.8c2.4,0,4.8,0.4,6.8,0.4c61.6,0,119.6-28.4,138-38.4l29.2,51.2    C296.297,356,290.297,359.6,285.497,357.6z" fill="#FFFFFF"/>
		<path d="M187.097,44.8l-2.8,16.4c-0.4,2.8,0.8,5.6,2.8,7.2c2.4,1.6,5.2,2,7.6,0.4l14.8-7.6l14.8,7.6c1.2,0.4,2.4,0.8,3.2,0.8    c1.6,0,2.8-0.4,4.4-1.2c2.4-1.6,3.2-4.4,2.8-7.2l-2.8-16.4l12-11.6c1.2-2,2-4.8,1.2-7.6c-0.8-2.8-3.2-4.4-6-4.8l-16.4-2.4    l-7.2-14.8c-2.4-4.8-10.4-4.8-12.8,0l-7.2,14.8l-16.4,2.4c-2.8,0.4-4.8,2.4-6,4.8c-0.8,2.8,0,5.6,2,7.6L187.097,44.8z     M200.697,32.4c2.4-0.4,4.4-2,5.6-4l2.4-5.2l2.4,5.2c1.2,2,3.2,3.6,5.6,4l5.6,0.8l-4,4c-1.6,1.6-2.4,4-2,6.4l0.8,5.6l-5.2-2.8    c-1.2-0.4-2.4-0.8-3.2-0.8c-1.2,0-2.4,0.4-3.2,0.8l-5.2,2.8l0.8-5.6c0.4-2.4-0.4-4.8-2-6.4l-4-4L200.697,32.4z" fill="#FFFFFF"/>
	</g>
</g>
<g>
</g>
<g>
</g>
<g>
</g>
<g>
</g>
<g>
</g>
<g>
</g>
<g>
</g>
<g>
</g>
<g>
</g>
<g>
</g>
<g>
</g>
<g>
</g>
<g>
</g>
<g>
</g>
<g>
</g>
</svg>
