<?xml version="1.0" standalone="no"?>
<!DOCTYPE svg PUBLIC "-//W3C//DTD SVG 20010904//EN"
 "http://www.w3.org/TR/2001/REC-SVG-20010904/DTD/svg10.dtd">
<svg version="1.0" xmlns="http://www.w3.org/2000/svg"
 width="1362.000000pt" height="1362.000000pt" viewBox="0 0 1362.000000 1362.000000"
 preserveAspectRatio="xMidYMid meet">
<metadata>
Created by potrace 1.11, written by Peter Selinger 2001-2013
</metadata>
<g transform="translate(0.000000,1362.000000) scale(0.100000,-0.100000)"
fill="#000000" stroke="none">
<path d="M7735 13608 c-196 -74 -300 -351 -242 -646 l14 -73 -31 -13 c-17 -7
-55 -21 -85 -31 -82 -27 -304 -143 -411 -214 -136 -91 -238 -176 -375 -315
-208 -209 -347 -401 -475 -657 l-40 -79 -58 -1 c-31 -1 -66 -3 -77 -4 -11 -1
-60 -6 -110 -9 -49 -4 -92 -9 -95 -11 -3 -2 -30 -6 -60 -9 -84 -9 -249 -40
-415 -78 -185 -42 -585 -158 -680 -198 -11 -4 -65 -25 -120 -46 -135 -50 -274
-110 -425 -182 -109 -51 -172 -85 -410 -220 -64 -37 -281 -184 -374 -255 -360
-274 -674 -605 -916 -966 -84 -126 -218 -369 -270 -489 -23 -53 -48 -110 -55
-127 -47 -110 -145 -424 -145 -468 0 -12 -4 -28 -8 -35 -9 -14 -11 -11 -72
128 -98 223 -265 558 -345 695 -108 183 -203 292 -329 373 -194 126 -418 135
-584 25 -54 -36 -139 -129 -167 -183 -8 -15 -18 -30 -22 -32 -31 -13 -136
-215 -173 -333 -25 -81 -23 -75 -54 -220 -2 -11 -7 -40 -11 -65 -4 -25 -9 -52
-10 -60 -7 -41 -15 -100 -20 -150 -3 -30 -8 -70 -11 -87 -2 -18 -6 -48 -8 -65
-17 -121 -30 -616 -31 -1118 0 -488 6 -692 30 -1060 6 -97 8 -115 19 -255 4
-44 9 -102 11 -130 4 -52 12 -188 20 -340 3 -49 7 -121 10 -160 2 -38 7 -108
10 -155 3 -47 8 -107 10 -135 2 -27 7 -86 10 -130 4 -44 8 -91 10 -105 2 -14
6 -61 10 -104 4 -43 8 -86 10 -95 2 -9 6 -48 10 -86 3 -39 8 -81 10 -95 2 -14
9 -69 15 -124 7 -54 13 -106 15 -116 2 -9 6 -41 10 -71 5 -46 16 -116 51 -334
5 -33 14 -88 20 -120 2 -11 9 -47 15 -80 5 -33 24 -127 41 -210 16 -82 32
-158 33 -167 2 -9 6 -43 10 -75 8 -74 50 -308 71 -393 9 -36 18 -76 20 -90 3
-14 7 -32 10 -40 3 -8 8 -25 10 -36 27 -142 180 -579 279 -799 62 -139 178
-365 235 -460 9 -16 48 -91 85 -165 37 -74 71 -142 76 -150 5 -8 21 -35 35
-60 15 -25 66 -110 113 -190 47 -80 132 -215 189 -300 57 -85 120 -186 139
-224 67 -132 151 -229 255 -292 l63 -38 3850 -3 3850 -3 33 20 c33 20 33 21
28 83 -11 122 -17 153 -45 212 -59 127 -211 267 -376 346 -110 52 -321 111
-520 144 -36 6 -75 13 -112 20 -70 14 -291 54 -318 59 -29 4 -234 41 -285 51
-14 3 -68 12 -120 21 -52 9 -104 18 -115 20 -35 7 -266 44 -370 60 -55 8 -140
17 -190 20 -49 4 -91 8 -93 9 -2 1 28 20 65 41 211 117 676 418 838 541 6 5
55 41 110 82 97 73 265 204 315 247 216 185 268 234 425 394 292 298 513 605
665 925 29 61 53 115 54 120 1 6 7 19 13 30 39 72 131 394 153 535 6 41 13 86
15 99 16 99 21 308 11 431 -30 358 -155 701 -372 1026 -109 164 -210 287 -370
448 -180 181 -472 395 -749 550 -66 37 -127 71 -135 76 -77 45 -373 181 -553
254 -42 17 -45 36 -6 46 41 10 396 0 539 -15 46 -5 193 -23 250 -30 18 -2 103
-15 145 -21 17 -3 75 -14 130 -25 55 -11 111 -22 125 -25 76 -14 276 -64 480
-120 61 -17 100 -38 100 -56 0 -10 60 -163 95 -243 8 -16 57 -138 111 -270
100 -249 209 -515 223 -550 21 -51 161 -391 178 -432 3 -7 -2 -13 -11 -13 -12
0 -16 -10 -17 -42 0 -24 0 -1172 0 -2553 l-1 -2510 1776 -3 1776 -2 -2 2552
-3 2553 -1428 0 c-1144 0 -1424 2 -1410 13 9 6 21 12 26 12 5 0 23 7 40 15 18
8 82 34 142 58 171 69 558 227 580 237 11 5 45 19 75 30 30 12 69 27 85 35 17
7 66 27 110 45 44 17 94 37 110 44 17 8 89 37 160 66 72 28 144 58 160 65 17
7 154 63 305 124 151 62 284 116 295 120 11 5 67 28 125 51 58 23 119 48 135
55 17 7 100 41 185 75 85 35 158 66 163 70 4 3 -31 100 -78 216 -47 115 -96
236 -109 269 -25 64 -128 317 -153 375 -23 54 -26 60 -128 315 -54 132 -104
256 -112 275 -8 19 -19 44 -24 55 -9 22 -111 275 -183 455 -26 63 -51 124 -56
135 -5 11 -46 110 -90 220 -45 110 -83 202 -85 204 -2 2 -59 -19 -127 -47 -68
-27 -258 -105 -423 -172 -165 -67 -309 -125 -320 -130 -11 -5 -159 -66 -330
-136 -170 -69 -404 -164 -520 -211 -115 -47 -285 -116 -377 -153 l-167 -68
-137 106 c-301 234 -631 549 -844 807 -41 50 -80 95 -86 102 -6 6 -71 91 -145
189 -74 98 -142 187 -152 198 -9 11 -14 23 -10 27 10 9 902 306 963 320 44 11
116 13 155 5 137 -27 422 -28 570 -1 204 37 373 88 564 170 407 174 825 498
1083 840 59 79 118 163 118 170 0 3 16 29 36 57 21 30 37 63 36 78 -1 40 -85
256 -162 417 -226 473 -551 877 -960 1194 -81 64 -324 229 -335 229 -3 0 -23
11 -45 25 -120 76 -378 191 -585 262 -92 31 -328 94 -400 107 -16 3 -43 8 -60
11 -66 12 -82 15 -130 21 -27 3 -60 7 -72 9 -116 19 -507 26 -643 12 -67 -7
-200 -26 -300 -43 -33 -5 -44 1 -170 103 -125 101 -240 187 -366 275 -91 64
-175 99 -250 103 -39 3 -82 0 -99 -7z m3024 -1663 c95 -63 129 -194 86 -329
-37 -117 -174 -291 -278 -354 -145 -88 -300 -24 -282 117 3 21 16 69 30 107
85 231 167 366 272 449 70 54 104 56 172 10z m-9864 -2573 c110 -36 161 -74
233 -175 170 -236 299 -506 499 -1042 328 -876 583 -1741 793 -2685 23 -102
59 -273 80 -380 42 -212 40 -203 70 -370 12 -63 23 -126 25 -140 3 -14 9 -50
15 -80 5 -30 12 -73 15 -95 3 -22 8 -49 10 -61 3 -11 7 -43 10 -70 3 -27 8
-56 10 -64 3 -8 11 -64 20 -125 19 -135 28 -265 41 -574 4 -86 8 -183 9 -216
3 -63 16 -695 18 -897 2 -115 -6 -143 -17 -63 -6 46 -44 278 -51 315 -2 13 -7
42 -10 65 -3 22 -8 51 -10 65 -3 14 -7 40 -10 58 -3 17 -7 47 -10 65 -3 17 -7
43 -10 57 -3 14 -7 41 -10 60 -3 19 -10 60 -15 90 -5 30 -11 69 -14 85 -9 58
-18 113 -91 556 -41 245 -77 463 -80 485 -3 21 -10 62 -15 89 -5 28 -12 66
-14 85 -3 19 -8 46 -10 60 -3 14 -12 70 -20 125 -9 55 -18 111 -21 125 -2 13
-7 40 -10 60 -3 20 -7 45 -9 55 -2 11 -7 42 -10 68 -4 27 -10 59 -12 70 -3 12
-7 34 -9 49 -2 15 -8 53 -14 85 -5 32 -13 76 -16 98 -3 22 -14 90 -25 150 -10
61 -21 126 -24 145 -7 48 -125 760 -130 785 -2 11 -7 40 -10 65 -3 25 -9 59
-11 75 -3 17 -10 57 -16 90 -9 57 -61 262 -79 315 -5 14 -21 70 -35 125 -15
55 -29 102 -31 104 -11 12 9 -506 21 -549 2 -8 6 -33 10 -55 3 -22 10 -65 15
-95 10 -60 15 -90 30 -190 5 -36 12 -76 15 -90 3 -14 14 -81 25 -150 11 -69
22 -135 24 -147 3 -11 8 -43 12 -70 3 -26 8 -55 9 -63 2 -8 6 -35 10 -60 4
-25 9 -54 11 -65 2 -11 11 -65 20 -120 8 -55 17 -111 20 -125 14 -75 25 -140
30 -180 3 -25 9 -61 14 -80 5 -19 11 -53 14 -75 4 -33 47 -299 62 -385 3 -22
23 -141 38 -240 3 -19 7 -44 10 -55 2 -11 7 -42 10 -68 4 -27 9 -57 11 -67 2
-9 6 -35 9 -56 4 -22 14 -79 22 -129 9 -49 18 -103 21 -120 2 -16 11 -70 19
-120 16 -95 22 -132 30 -180 2 -16 9 -55 14 -85 5 -30 12 -71 15 -90 11 -66
14 -85 19 -115 3 -16 17 -102 31 -190 14 -88 28 -171 30 -185 2 -14 16 -97 30
-185 15 -88 28 -171 30 -185 2 -14 16 -92 30 -174 14 -82 27 -161 29 -175 11
-77 28 -179 46 -286 12 -66 24 -138 27 -160 3 -22 11 -69 19 -105 20 -96 12
-554 -11 -630 -20 -66 -35 -85 -36 -47 -1 15 -2 30 -3 35 -2 8 -15 82 -22 126
-5 30 -69 418 -123 741 -11 66 -23 140 -26 165 -4 24 -8 47 -10 50 -2 3 -6 29
-10 59 -4 30 -9 63 -11 75 -2 12 -6 35 -8 51 -3 17 -7 42 -10 55 -3 14 -8 43
-11 65 -11 75 -16 110 -35 220 -10 61 -21 126 -24 145 -3 19 -8 46 -10 60 -10
53 -48 286 -51 310 -2 14 -13 79 -24 145 -25 147 -37 222 -57 345 -8 52 -17
106 -20 120 -27 162 -36 219 -39 240 -8 48 -24 145 -28 165 -4 18 -20 115 -23
140 -1 15 -16 107 -20 130 -2 11 -9 49 -15 85 -16 102 -17 110 -34 210 -9 52
-18 106 -20 120 -2 14 -22 135 -45 270 -22 135 -43 256 -45 270 -2 14 -13 84
-25 155 -12 72 -23 139 -25 150 -4 32 -15 99 -20 125 -3 14 -8 45 -11 70 -3
25 -7 52 -9 60 -3 8 -7 33 -10 55 -4 22 -8 51 -11 65 -2 14 -9 54 -14 90 -6
36 -13 79 -16 95 -3 17 -23 138 -45 270 -22 132 -42 251 -44 265 -2 14 -7 43
-11 65 -3 22 -28 173 -55 335 -27 162 -51 309 -54 325 -8 59 -16 110 -20 125
-2 8 -7 33 -10 55 -3 23 -7 50 -9 62 -3 12 -8 43 -12 70 -3 26 -8 57 -10 68
-3 11 -7 36 -10 55 -7 42 -134 513 -141 520 -2 2 -2 -103 2 -235 6 -245 11
-282 100 -805 2 -14 7 -43 10 -65 3 -22 8 -51 10 -65 3 -14 7 -43 11 -65 3
-22 7 -47 9 -55 2 -8 7 -33 10 -55 3 -23 8 -52 10 -65 3 -14 8 -41 11 -60 4
-32 28 -179 38 -240 3 -14 19 -110 36 -215 17 -104 33 -202 35 -217 3 -16 7
-40 9 -55 6 -36 35 -212 40 -238 10 -59 16 -94 21 -130 3 -22 10 -62 15 -90 5
-27 11 -61 14 -75 2 -14 7 -44 11 -68 4 -23 8 -52 10 -65 1 -12 8 -51 14 -87
6 -36 13 -83 16 -105 3 -22 8 -51 11 -65 2 -14 6 -36 9 -50 3 -13 7 -42 10
-65 3 -22 12 -76 20 -120 8 -44 17 -98 20 -120 4 -32 37 -225 59 -355 3 -14
14 -83 25 -155 22 -136 23 -140 41 -245 7 -36 14 -78 16 -95 2 -16 6 -41 9
-55 3 -14 7 -41 9 -60 3 -19 8 -51 11 -70 4 -19 8 -44 10 -55 1 -11 8 -51 14
-90 7 -38 21 -124 31 -190 11 -66 22 -131 24 -145 4 -22 39 -236 51 -310 2
-14 11 -68 20 -120 9 -52 18 -106 20 -120 2 -14 6 -38 9 -55 14 -82 118 -714
122 -740 2 -16 6 -41 9 -55 7 -38 16 -93 20 -115 10 -69 23 -157 35 -225 5
-30 12 -71 15 -90 6 -35 20 -120 30 -175 2 -16 23 -140 45 -275 22 -135 42
-256 45 -270 2 -13 7 -42 11 -64 3 -22 7 -43 9 -46 9 -15 -21 -54 -75 -100
-34 -28 -64 -49 -66 -47 -3 2 -13 60 -25 128 -22 139 -26 161 -39 239 -5 30
-11 69 -14 85 -7 49 -26 168 -32 200 -3 17 -7 39 -9 50 -1 11 -8 49 -14 85 -6
36 -13 83 -16 105 -4 22 -19 117 -35 210 -16 94 -31 186 -34 205 -9 57 -56
343 -62 375 -3 17 -7 39 -9 50 -4 22 -35 218 -40 250 -1 11 -7 47 -14 80 -6
33 -13 77 -16 99 -2 21 -7 46 -9 55 -3 9 -7 34 -11 56 -3 22 -8 54 -11 70 -3
17 -7 41 -9 55 -1 14 -8 54 -14 90 -6 36 -13 83 -16 105 -3 22 -8 51 -11 65
-2 14 -6 36 -9 50 -3 13 -7 42 -10 65 -3 22 -12 76 -20 120 -8 44 -16 96 -19
115 -4 27 -76 464 -110 665 -44 266 -68 406 -71 435 -3 19 -7 46 -10 60 -3 14
-7 39 -10 57 -2 18 -9 58 -14 90 -6 32 -13 76 -16 98 -4 22 -8 51 -11 65 -2
14 -7 41 -10 60 -3 19 -7 46 -10 60 -2 14 -13 79 -24 145 -11 66 -22 129 -24
140 -2 11 -6 41 -10 66 -4 25 -9 57 -11 70 -17 97 -47 278 -50 299 -2 14 -13
84 -25 155 -12 72 -24 144 -27 160 -2 17 -13 80 -23 140 -11 61 -22 133 -25
160 -4 28 -8 57 -10 65 -3 8 -7 32 -11 54 -3 21 -7 47 -9 56 -2 10 -7 40 -11
67 -3 26 -8 57 -10 68 -2 11 -9 49 -14 85 -6 36 -13 76 -16 90 -2 14 -7 39 -9
55 -2 17 -20 125 -39 240 -57 340 -58 349 -61 370 -15 99 -48 270 -60 310 -9
28 -30 102 -47 165 -17 63 -39 144 -49 180 l-18 65 5 -240 c5 -233 7 -267 18
-330 5 -32 12 -68 21 -125 3 -19 10 -60 15 -90 5 -30 12 -73 15 -94 3 -21 7
-48 10 -60 2 -12 7 -39 10 -60 3 -21 7 -48 10 -60 2 -12 7 -39 10 -61 3 -22
10 -65 15 -95 5 -30 12 -68 14 -85 3 -16 12 -73 21 -125 9 -52 18 -106 20
-120 3 -20 22 -135 50 -300 2 -14 7 -43 10 -65 3 -22 10 -62 15 -90 5 -27 11
-66 14 -85 14 -96 17 -117 22 -140 5 -27 10 -55 18 -110 3 -19 8 -46 10 -60 3
-14 16 -95 30 -180 14 -85 48 -292 76 -460 28 -168 53 -321 56 -340 3 -19 7
-42 9 -50 2 -8 7 -35 10 -60 3 -25 10 -67 15 -95 6 -27 12 -70 15 -94 3 -24 7
-47 9 -50 3 -3 7 -33 11 -65 3 -33 8 -62 9 -65 3 -5 11 -54 21 -128 2 -12 6
-34 9 -50 3 -15 8 -48 11 -73 4 -25 10 -61 15 -80 4 -19 11 -59 14 -89 4 -30
9 -64 11 -75 6 -24 9 -46 30 -176 9 -52 18 -106 20 -120 2 -14 13 -81 25 -150
11 -69 22 -135 24 -147 3 -11 8 -43 12 -70 5 -26 9 -50 9 -53 1 -3 5 -30 9
-60 5 -30 10 -64 12 -75 2 -11 9 -49 15 -85 5 -36 12 -76 14 -90 2 -14 7 -43
10 -65 4 -22 8 -47 10 -55 2 -8 7 -35 10 -60 3 -25 15 -94 25 -155 10 -60 21
-123 23 -140 10 -67 38 -233 47 -285 6 -30 35 -208 66 -395 30 -187 57 -351
59 -365 2 -14 7 -43 10 -65 3 -22 10 -62 15 -90 5 -27 12 -66 15 -85 3 -19 7
-46 10 -60 2 -14 6 -41 9 -60 3 -19 23 -143 45 -275 22 -132 43 -260 46 -285
4 -24 9 -48 11 -51 7 -11 -26 -20 -103 -26 -40 -3 -73 -2 -74 3 0 5 -2 18 -5
29 -2 11 -6 43 -9 70 -3 28 -8 57 -10 65 -2 8 -7 31 -10 50 -3 19 -7 46 -10
60 -8 41 -16 93 -20 120 -4 29 -24 152 -31 195 -3 17 -23 138 -44 270 -22 132
-44 263 -49 290 -5 28 -13 70 -17 95 -3 25 -8 54 -10 65 -2 11 -21 133 -44
270 -22 138 -43 266 -47 285 -3 19 -7 42 -9 50 -3 15 -14 87 -20 125 -7 53
-18 119 -33 200 -6 33 -13 83 -17 110 -3 28 -7 52 -9 55 -2 3 -6 30 -10 60 -4
30 -8 57 -10 60 -2 3 -6 26 -10 50 -3 25 -13 86 -21 135 -8 50 -17 101 -19
115 -2 14 -18 108 -35 210 -17 102 -33 201 -36 220 -3 19 -9 58 -14 85 -5 28
-11 66 -14 85 -3 19 -15 94 -27 165 -12 72 -23 139 -24 150 -3 21 -83 503 -90
545 -3 14 -12 68 -20 120 -15 92 -19 112 -29 175 -3 17 -12 73 -21 125 -8 52
-17 106 -19 120 -16 90 -38 228 -41 245 -7 55 -16 112 -20 125 -2 8 -7 33 -10
55 -3 23 -7 50 -9 62 -3 12 -8 43 -12 70 -7 49 -10 69 -18 113 -3 14 -7 41
-10 60 -7 46 -102 622 -121 730 -8 47 -17 103 -20 125 -3 22 -12 76 -20 120
-8 44 -17 98 -20 120 -3 23 -7 52 -10 65 -3 14 -7 36 -9 50 -3 14 -7 41 -10
60 -3 19 -14 91 -25 160 -12 69 -23 143 -26 165 -4 22 -8 47 -10 55 -3 8 -7
33 -11 55 -6 40 -15 77 -54 215 -11 41 -29 107 -40 145 -52 189 -49 192 -44
-55 4 -232 9 -310 24 -370 5 -19 11 -53 14 -75 3 -22 19 -123 36 -225 17 -102
33 -200 36 -219 3 -18 7 -42 9 -51 2 -10 7 -40 11 -67 3 -26 8 -57 10 -68 3
-11 9 -51 14 -89 6 -37 12 -71 14 -75 2 -3 6 -28 10 -56 3 -27 8 -59 10 -70 2
-11 9 -56 16 -100 7 -44 14 -89 16 -100 2 -11 6 -31 8 -45 3 -14 8 -43 11 -65
3 -22 10 -65 15 -95 5 -30 12 -71 15 -90 3 -19 10 -60 15 -90 9 -53 16 -92 26
-155 2 -16 9 -55 14 -85 5 -30 11 -71 14 -90 3 -19 8 -46 10 -60 15 -79 49
-288 51 -305 1 -11 4 -33 8 -50 3 -16 9 -48 12 -70 7 -48 14 -91 20 -125 3
-14 7 -38 9 -55 3 -16 23 -142 46 -280 23 -137 43 -263 46 -280 3 -16 7 -41 9
-55 26 -156 39 -234 56 -340 11 -69 22 -132 24 -140 2 -8 7 -35 10 -60 3 -25
8 -58 11 -73 3 -16 7 -38 9 -50 9 -73 18 -123 20 -127 2 -3 7 -33 10 -65 4
-33 9 -63 11 -66 3 -5 16 -82 29 -174 3 -23 8 -52 10 -65 3 -14 8 -41 11 -60
4 -30 66 -402 79 -480 2 -14 11 -68 20 -120 8 -52 17 -104 19 -115 2 -11 7
-40 11 -65 4 -25 9 -52 10 -60 7 -41 16 -98 20 -127 2 -18 6 -40 9 -50 2 -10
8 -40 11 -68 4 -27 9 -59 11 -70 2 -11 8 -49 13 -85 6 -36 13 -75 15 -86 5
-25 14 -78 21 -131 3 -21 8 -49 10 -63 3 -14 7 -41 10 -60 3 -19 10 -57 15
-85 5 -27 12 -68 15 -90 3 -22 17 -107 31 -190 28 -170 33 -200 39 -235 2 -14
15 -92 29 -175 13 -82 27 -163 29 -180 3 -16 10 -57 15 -90 6 -33 14 -80 17
-104 l6 -44 -29 19 c-91 59 -79 27 -144 417 -32 194 -65 393 -73 442 -8 50
-19 119 -25 155 -6 36 -13 77 -15 93 -3 15 -8 42 -11 60 -3 17 -7 48 -10 67
-2 19 -8 58 -14 85 -5 28 -11 64 -14 80 -5 35 -74 455 -82 500 -3 17 -7 41 -9
55 -4 30 -21 135 -35 210 -6 30 -24 141 -41 245 -16 105 -32 201 -35 215 -4
23 -36 220 -49 300 -25 157 -37 225 -40 230 -1 3 -6 32 -9 65 -4 33 -9 67 -11
75 -2 8 -6 33 -10 55 -3 22 -12 81 -21 130 -8 50 -17 101 -19 115 -2 14 -11
68 -20 120 -9 52 -18 106 -20 120 -2 14 -20 120 -39 235 -38 233 -45 276 -51
320 -3 17 -6 39 -9 50 -2 11 -7 40 -11 65 -4 25 -9 54 -11 65 -2 10 -6 37 -9
60 -7 43 -12 78 -19 110 -2 11 -7 42 -10 68 -4 26 -11 71 -17 100 -5 29 -12
68 -15 87 -3 19 -14 85 -24 145 -21 125 -26 154 -34 210 -4 22 -9 56 -12 75
-3 19 -8 46 -10 60 -2 14 -8 50 -14 80 -10 56 -46 276 -56 340 -6 39 -21 131
-29 170 -3 14 -7 45 -10 69 -3 24 -7 46 -9 50 -2 3 -6 29 -10 56 -3 28 -8 61
-11 75 -5 26 -11 57 -20 124 -17 124 -50 273 -96 436 -28 102 -56 204 -61 228
-5 23 -12 42 -14 42 -11 0 8 -483 22 -565 29 -174 101 -609 108 -655 3 -19 12
-78 21 -130 9 -52 18 -106 20 -120 2 -14 9 -56 15 -95 7 -38 14 -83 17 -100 2
-16 18 -111 35 -210 16 -99 31 -191 33 -205 5 -33 13 -84 25 -145 5 -27 11
-66 14 -85 7 -45 45 -278 50 -306 5 -24 13 -72 26 -159 5 -33 11 -71 14 -85 3
-14 8 -43 11 -65 5 -38 8 -59 21 -135 3 -19 8 -46 10 -60 2 -14 6 -34 9 -46 2
-11 7 -43 10 -70 3 -27 8 -56 11 -65 2 -9 7 -32 9 -50 6 -48 114 -698 136
-824 6 -33 12 -71 14 -85 2 -14 10 -65 19 -115 9 -49 18 -106 20 -125 3 -19 7
-48 10 -65 11 -62 16 -95 35 -211 11 -66 22 -132 24 -149 3 -16 28 -169 56
-340 29 -170 54 -323 57 -340 2 -16 9 -55 14 -85 5 -30 12 -73 15 -95 4 -22
15 -89 25 -150 11 -60 21 -123 24 -140 17 -103 38 -234 42 -255 2 -14 6 -41 9
-60 3 -19 7 -46 10 -60 3 -14 10 -54 16 -90 5 -36 11 -74 13 -85 2 -11 7 -42
11 -70 4 -27 9 -59 11 -70 7 -40 13 -71 19 -110 l7 -40 -21 27 c-12 14 -21 29
-21 32 0 3 -20 36 -44 73 -93 145 -144 253 -156 336 -6 43 -13 88 -15 100 -27
155 -35 208 -40 242 -3 22 -8 49 -10 61 -3 12 -7 39 -10 60 -6 36 -59 360 -71
429 -13 77 -85 514 -90 545 -3 19 -9 60 -14 90 -5 30 -12 73 -16 95 -3 22 -9
58 -14 80 -5 22 -12 67 -15 100 -4 33 -9 63 -11 66 -2 4 -6 24 -9 45 -3 22 -7
53 -10 69 -3 17 -7 47 -11 69 -3 21 -8 48 -10 60 -6 33 -45 268 -49 298 -2 15
-8 51 -14 80 -6 29 -13 71 -16 93 -6 45 -5 35 -40 245 -14 85 -28 171 -31 190
-3 19 -7 46 -10 60 -2 14 -6 36 -9 50 -3 14 -7 45 -10 69 -3 24 -7 46 -9 50
-2 3 -6 29 -10 56 -3 28 -8 61 -11 75 -2 14 -9 54 -15 90 -5 36 -12 75 -14 87
-3 11 -8 43 -12 70 -3 26 -8 57 -10 68 -7 35 -42 246 -70 420 -2 17 -9 55 -14
85 -5 30 -12 69 -14 85 -3 17 -7 44 -10 60 -3 17 -17 100 -31 185 -14 85 -28
173 -31 195 -3 22 -9 60 -14 85 -5 25 -12 63 -15 85 -7 49 -5 38 -55 335 -22
135 -45 263 -49 285 -10 46 -119 435 -126 450 -5 11 3 -380 10 -465 3 -43 109
-704 129 -807 3 -11 8 -43 12 -70 3 -26 8 -57 10 -68 2 -10 6 -35 9 -55 3 -20
8 -47 10 -60 3 -14 8 -45 10 -70 3 -25 8 -52 11 -61 2 -9 7 -34 9 -55 3 -22
10 -66 16 -99 6 -33 13 -73 16 -90 2 -16 20 -122 38 -235 19 -113 36 -221 39
-240 3 -19 8 -46 10 -60 13 -67 58 -340 62 -375 3 -22 9 -60 14 -85 5 -25 14
-77 20 -117 6 -39 13 -77 14 -85 2 -7 6 -35 10 -63 4 -27 11 -72 16 -100 5
-27 11 -63 13 -80 3 -16 8 -46 11 -65 10 -57 16 -93 22 -130 13 -83 83 -508
88 -535 14 -83 35 -214 41 -250 3 -22 7 -47 10 -55 2 -8 6 -33 10 -55 3 -22
10 -69 16 -105 6 -36 12 -76 14 -90 2 -14 6 -38 9 -55 3 -16 10 -57 15 -90 6
-33 12 -69 14 -80 4 -18 8 -44 23 -155 3 -19 7 -42 9 -50 3 -8 7 -33 10 -55 4
-22 24 -146 46 -276 21 -130 39 -243 38 -250 0 -17 -119 228 -124 256 -15 80
-25 146 -30 180 -4 22 -12 76 -20 120 -8 44 -17 98 -20 120 -3 23 -8 52 -10
65 -3 14 -12 68 -20 120 -9 52 -17 104 -19 115 -9 48 -22 123 -36 215 -16 94
-16 97 -51 305 -17 105 -32 199 -34 210 -1 11 -5 34 -8 50 -3 17 -9 46 -11 65
-3 19 -7 44 -10 55 -2 11 -7 40 -10 65 -3 25 -8 54 -10 65 -5 31 -15 87 -21
125 -3 19 -10 60 -15 90 -5 30 -12 73 -15 95 -6 43 -10 70 -25 155 -5 30 -12
69 -14 85 -3 17 -16 98 -30 180 -14 83 -27 166 -30 185 -3 19 -8 46 -10 60 -6
28 -35 200 -42 245 -2 17 -9 55 -14 85 -5 30 -11 69 -14 85 -2 17 -9 59 -15
95 -6 36 -13 82 -17 104 -3 21 -8 48 -10 60 -2 11 -7 41 -10 66 -3 25 -7 52
-9 60 -2 8 -7 38 -11 65 -3 28 -8 52 -9 55 -2 3 -6 26 -10 50 -15 110 -29 174
-66 310 -49 177 -45 162 -52 180 -3 8 -8 26 -10 40 -3 14 -12 48 -21 75 -14
47 -14 36 -10 -185 3 -142 11 -273 20 -330 9 -52 17 -106 19 -120 2 -14 6 -38
9 -55 9 -51 54 -328 59 -360 3 -16 10 -57 16 -90 6 -33 13 -73 15 -90 2 -16
13 -88 25 -160 12 -71 24 -146 27 -165 3 -19 9 -57 14 -85 5 -27 12 -68 15
-90 3 -22 12 -80 21 -130 8 -49 17 -101 19 -115 2 -14 18 -108 35 -210 17
-102 33 -196 35 -210 2 -14 13 -81 25 -150 11 -69 23 -141 26 -160 3 -19 7
-46 10 -60 6 -35 21 -123 29 -180 2 -14 9 -56 15 -95 7 -38 13 -79 15 -90 2
-11 13 -78 24 -150 29 -172 27 -158 55 -330 14 -82 28 -168 32 -190 3 -22 8
-44 11 -50 4 -7 2 -7 -4 0 -9 8 -82 221 -154 450 -83 264 -243 920 -284 1165
-3 19 -14 80 -25 135 -10 55 -21 118 -24 140 -4 22 -15 92 -26 155 -10 63 -21
131 -24 150 -15 112 -19 137 -22 154 -2 11 -8 56 -14 100 -6 45 -13 92 -15
106 -2 14 -6 54 -10 90 -3 36 -8 72 -10 80 -3 14 -11 80 -21 170 -6 61 -14
134 -18 170 -3 19 -7 64 -11 100 -3 36 -8 81 -10 100 -5 39 -12 111 -20 210
-3 36 -8 83 -10 105 -2 22 -7 76 -11 120 -3 44 -7 96 -9 115 -2 19 -6 80 -10
134 -4 55 -8 107 -10 116 -2 9 -6 66 -10 126 -3 60 -8 125 -10 144 -4 32 -11
136 -21 310 -25 443 -24 1101 1 1345 2 22 6 67 9 100 8 83 15 150 26 220 5 33
12 83 15 110 4 28 8 57 10 65 3 8 7 33 11 55 3 22 10 59 15 83 5 23 12 58 15
77 23 146 145 325 258 379 85 40 218 48 311 18z m11328 -1144 c56 -140 122
-300 132 -323 7 -16 24 -58 39 -91 14 -34 26 -64 26 -68 0 -3 9 -25 19 -49 11
-23 112 -269 224 -547 113 -278 224 -550 246 -605 23 -54 41 -104 41 -110 0
-6 -98 -51 -217 -99 -211 -86 -367 -150 -638 -260 -71 -29 -260 -106 -420
-171 -159 -64 -303 -123 -320 -130 -45 -19 -275 -113 -490 -200 -104 -42 -199
-80 -210 -85 -11 -5 -72 -30 -135 -56 -63 -25 -122 -49 -129 -54 -18 -9 -26 4
-69 116 -17 44 -83 207 -147 364 -64 157 -123 303 -132 325 -8 22 -19 49 -24
60 -25 55 -97 240 -94 243 4 4 149 -47 379 -135 94 -36 198 -75 231 -88 33
-12 138 -54 234 -94 96 -39 182 -71 191 -71 29 0 63 34 63 64 0 20 3 26 15 21
43 -16 193 -55 238 -60 56 -8 87 3 104 34 15 28 2 52 -65 123 -34 35 -81 88
-105 118 -25 30 -49 59 -55 63 -5 4 22 5 60 1 136 -14 351 1 411 28 27 13 39
46 30 81 -6 23 -33 40 -381 246 -93 56 -165 101 -160 102 6 0 17 2 26 4 9 1
47 6 85 9 314 29 357 41 357 102 0 36 -19 48 -142 95 -292 110 -700 307 -860
415 l-34 23 24 9 c24 10 437 177 474 192 11 5 36 15 55 24 19 8 96 39 170 69
237 96 456 185 623 254 330 135 321 132 330 111z m987 -4485 l0 -983 -1395 0
-1395 0 0 978 c0 538 2 981 4 983 3 2 630 4 1395 4 l1391 0 0 -982z m0 -2380
l0 -983 -1395 0 -1395 0 0 983 0 983 1395 0 1395 -1 0 -982z"/>
</g>
</svg>
