<?xml version="1.0" encoding="UTF-8" standalone="no"?>
<!-- Generator: Adobe Illustrator 19.0.0, SVG Export Plug-In . SVG Version: 6.00 Build 0)  -->

<svg
   xmlns:dc="http://purl.org/dc/elements/1.1/"
   xmlns:cc="http://creativecommons.org/ns#"
   xmlns:rdf="http://www.w3.org/1999/02/22-rdf-syntax-ns#"
   xmlns:svg="http://www.w3.org/2000/svg"
   xmlns="http://www.w3.org/2000/svg"
   xmlns:sodipodi="http://sodipodi.sourceforge.net/DTD/sodipodi-0.dtd"
   xmlns:inkscape="http://www.inkscape.org/namespaces/inkscape"
   version="1.1"
   id="Layer_1"
   x="0px"
   y="0px"
   viewBox="0 0 1000 1000"
   style="enable-background:new 0 0 1000 1000;"
   xml:space="preserve"
   sodipodi:docname="Compiler-Explorer.svg"
   inkscape:version="0.92.4 (5da689c313, 2019-01-14)"><metadata
   id="metadata17"><rdf:RDF><cc:Work
       rdf:about=""><dc:format>image/svg+xml</dc:format><dc:type
         rdf:resource="http://purl.org/dc/dcmitype/StillImage" /></cc:Work></rdf:RDF></metadata><defs
   id="defs15" /><sodipodi:namedview
   pagecolor="#ffffff"
   bordercolor="#666666"
   borderopacity="1"
   objecttolerance="10"
   gridtolerance="10"
   guidetolerance="10"
   inkscape:pageopacity="0"
   inkscape:pageshadow="2"
   inkscape:window-width="1600"
   inkscape:window-height="1137"
   id="namedview13"
   showgrid="false"
   inkscape:zoom="0.236"
   inkscape:cx="500"
   inkscape:cy="500"
   inkscape:window-x="1912"
   inkscape:window-y="-8"
   inkscape:window-maximized="1"
   inkscape:current-layer="Layer_1" />
<style
   type="text/css"
   id="style2">
	.st0{fill:#67C52A;}
	.st1{fill:#3C3C3F;}
</style>
<g
   id="CE"
   transform="matrix(1.4264704,0,0,1.4264704,-165.27926,-213.17123)">
	<path
   id="XMLID_3_"
   class="st0"
   d="m 756.4,658.1 c -3.2,-5.7 -3.2,-12.7 0,-18.5 3.8,-6.9 7.3,-13.8 10.6,-21.1 2.3,-5.2 -1.4,-11.1 -7.2,-11.1 H 697 c -6.4,0 -12.5,3.2 -16,8.6 -8.1,12.3 -17.5,24.3 -28.3,35 -40.3,40.3 -94,62.5 -151,62.5 -57,0 -110.7,-22.2 -151,-62.5 -40.3,-40.3 -62.5,-94 -62.5,-151 0,-57 22.2,-110.7 62.5,-151 40.3,-40.3 94,-62.5 151,-62.5 57,0 110.7,22.2 151,62.5 10.7,10.7 20.2,22.7 28.3,35 3.5,5.4 9.5,8.6 16,8.6 h 62.8 c 5.7,0 9.5,-5.9 7.2,-11.1 -3.2,-7.2 -6.8,-14.1 -10.6,-21.1 -3.2,-5.7 -3.1,-12.7 0,-18.5 l 21.3,-38.6 c 4.1,-7.5 2.8,-16.8 -3.2,-22.8 l -53.2,-53.2 c -6,-6 -15.4,-7.4 -22.8,-3.2 l -38.7,21.4 c -5.8,3.2 -12.7,3.1 -18.5,-0.1 -18.4,-10.1 -37.9,-18.1 -58.1,-23.9 -6.3,-1.8 -11.3,-6.7 -13.1,-13 L 557.8,166 c -2.4,-8.2 -9.9,-13.9 -18.4,-13.9 h -75.3 c -8.5,0 -16.1,5.6 -18.4,13.9 l -12.2,42.3 c -1.8,6.3 -6.8,11.2 -13.1,13 -20.2,5.9 -39.7,13.9 -58.1,24 -5.8,3.2 -12.7,3.2 -18.5,0.1 L 305,224.1 c -7.5,-4.1 -16.8,-2.8 -22.8,3.2 L 229,280.5 c -6,6 -7.4,15.4 -3.2,22.8 l 21.4,38.7 c 3.2,5.8 3.1,12.7 -0.1,18.5 -10.1,18.4 -18.1,37.9 -23.9,58.1 -1.8,6.3 -6.7,11.3 -13,13.1 l -42.3,12.2 c -8.2,2.4 -13.9,9.9 -13.9,18.4 v 75.3 c 0,8.5 5.6,16.1 13.9,18.4 l 42.3,12.2 c 6.3,1.8 11.2,6.8 13,13.1 5.9,20.2 13.9,39.7 24,58.1 3.2,5.8 3.2,12.7 0.1,18.5 l -21.4,38.7 c -4.1,7.5 -2.8,16.8 3.2,22.8 l 53.2,53.2 c 6,6 15.4,7.4 22.8,3.2 l 38.7,-21.4 c 5.8,-3.2 12.7,-3.1 18.5,0.1 18.4,10.1 37.9,18.1 58.1,23.9 6.3,1.8 11.3,6.7 13.1,13 l 12.2,42.3 c 2.4,8.2 9.9,13.9 18.4,13.9 h 75.3 c 8.5,0 16.1,-5.6 18.4,-13.9 L 570,791.4 c 1.8,-6.3 6.8,-11.2 13.1,-13 20.2,-5.9 39.7,-13.9 58.1,-24 5.8,-3.2 12.7,-3.2 18.5,-0.1 l 38.7,21.4 c 7.5,4.1 16.8,2.8 22.8,-3.2 l 53.2,-53.2 c 6,-6 7.4,-15.4 3.2,-22.8 z"
   inkscape:connector-curvature="0"
   style="fill:#67c52a" />
	<g
   id="XMLID_2_">
		<rect
   id="XMLID_15_"
   x="373.70001"
   y="391.60001"
   class="st1"
   width="258.39999"
   height="48"
   style="fill:#3c3c3f" />
	</g>
	<g
   id="XMLID_4_">
		<rect
   id="XMLID_14_"
   x="373.70001"
   y="476.89999"
   class="st1"
   width="213.2"
   height="48"
   style="fill:#3c3c3f" />
	</g>
	<g
   id="XMLID_5_">
		<rect
   id="XMLID_13_"
   x="373.70001"
   y="562.09998"
   class="st1"
   width="258.39999"
   height="48"
   style="fill:#3c3c3f" />
	</g>
</g>
</svg>