<?xml version="1.0" standalone="no"?>
<!DOCTYPE svg PUBLIC "-//W3C//DTD SVG 20010904//EN"
 "http://www.w3.org/TR/2001/REC-SVG-20010904/DTD/svg10.dtd">
<svg version="1.0" xmlns="http://www.w3.org/2000/svg"
 width="1518.000000pt" height="1518.000000pt" viewBox="0 0 1518.000000 1518.000000"
 preserveAspectRatio="xMidYMid meet">
<metadata>
Created by potrace 1.11, written by Peter Selinger 2001-2013
</metadata>
<g transform="translate(0.000000,1518.000000) scale(0.100000,-0.100000)"
fill="#000000" stroke="none">
<path d="M11159 15176 c-2 -2 -30 -7 -62 -11 -155 -17 -375 -109 -513 -214
-156 -117 -265 -251 -363 -449 -122 -245 -146 -353 -146 -672 0 -210 8 -399
19 -455 2 -11 7 -45 11 -75 9 -70 16 -117 21 -144 2 -11 9 -48 14 -81 6 -33
15 -73 20 -90 5 -16 12 -41 14 -55 3 -14 10 -43 16 -65 6 -22 13 -49 15 -59 2
-10 25 -79 50 -152 78 -229 176 -426 309 -619 22 -33 43 -62 46 -65 3 -3 28
-32 55 -65 66 -78 106 -119 185 -185 36 -30 67 -58 70 -61 28 -33 274 -174
475 -274 297 -147 383 -202 490 -309 142 -142 187 -233 191 -386 2 -74 -1
-107 -17 -150 -25 -72 -71 -137 -122 -176 -58 -44 -85 -50 -106 -27 -10 10
-36 33 -59 51 -22 19 -50 41 -61 50 -10 10 -28 25 -39 34 -11 9 -78 58 -148
108 -412 295 -918 523 -1434 645 -182 44 -477 90 -650 103 -190 14 -680 6
-780 -13 -8 -1 -40 -6 -70 -9 -30 -4 -68 -9 -85 -12 -74 -12 -143 -24 -175
-29 -19 -3 -73 -15 -120 -25 -588 -135 -1137 -387 -1624 -748 -55 -41 -103
-78 -106 -81 -3 -3 -45 -40 -95 -81 -124 -102 -269 -243 -396 -383 l-34 -37
-60 9 c-33 5 -94 12 -135 15 -41 3 -84 8 -96 10 -12 2 -45 7 -75 11 -30 3 -80
11 -111 16 -32 6 -70 12 -85 15 -368 63 -656 162 -908 312 -72 43 -185 123
-185 132 0 4 -21 17 -47 30 -54 27 -169 34 -195 12 -13 -10 -30 -66 -43 -146
-3 -14 -7 -38 -10 -53 -21 -114 -27 -411 -13 -563 49 -516 292 -1076 640
-1475 159 -182 404 -387 622 -520 15 -9 22 -30 30 -90 36 -254 176 -601 346
-856 70 -104 103 -152 110 -159 3 -3 21 -25 40 -50 55 -71 96 -117 227 -249
l122 -124 -26 -46 c-121 -211 -297 -462 -441 -628 -257 -297 -646 -595 -967
-742 -22 -10 -66 -31 -99 -46 -32 -15 -100 -43 -150 -62 -89 -35 -121 -45
-316 -102 -122 -36 -175 -61 -238 -110 -88 -70 -139 -190 -136 -324 1 -70 14
-229 19 -238 23 -36 23 -679 1 -718 -2 -3 -6 -29 -10 -58 -3 -28 -8 -57 -10
-65 -3 -7 -8 -31 -11 -53 -39 -272 -205 -689 -383 -965 -78 -121 -312 -420
-329 -420 -3 0 -17 8 -31 19 -63 44 -126 62 -236 66 -172 5 -308 -47 -665
-254 -375 -218 -677 -367 -981 -485 -52 -20 -104 -41 -115 -46 -11 -4 -56 -20
-100 -35 -44 -15 -89 -31 -100 -35 -11 -5 -74 -25 -140 -46 -132 -41 -155 -54
-155 -93 0 -32 6 -40 50 -73 85 -63 208 -70 515 -28 39 6 90 12 115 15 92 10
146 16 170 20 77 11 110 15 160 20 30 3 71 8 90 10 19 2 60 7 90 11 30 3 58 8
63 11 4 2 7 0 7 -6 0 -26 -212 -160 -365 -231 -137 -64 -466 -181 -575 -205
-8 -2 -64 -17 -125 -34 -60 -17 -117 -31 -125 -31 -24 -1 -57 -33 -64 -61 -8
-34 18 -67 59 -73 225 -36 285 -41 540 -41 204 0 337 6 415 19 14 3 43 7 65
10 22 3 65 10 95 16 30 6 71 13 90 16 19 3 62 12 95 21 33 8 67 16 75 18 210
46 621 213 820 334 19 11 42 24 50 28 44 20 307 200 385 264 141 116 295 261
379 359 21 25 60 68 85 95 82 87 132 172 309 515 49 96 108 209 131 250 38 67
137 266 189 380 91 197 197 476 280 740 38 120 99 352 127 480 l16 75 77 19
c304 74 944 279 1172 375 25 11 97 40 160 66 273 112 689 308 935 443 226 123
243 133 342 193 40 24 105 64 145 88 136 82 483 314 566 377 73 57 112 77 112
58 0 -9 -189 -259 -320 -424 -63 -80 -137 -175 -163 -212 -58 -80 -119 -210
-142 -298 -17 -66 -23 -207 -11 -247 4 -12 9 -32 11 -44 17 -89 126 -223 211
-260 59 -26 172 -35 258 -20 38 7 163 41 280 76 264 79 378 111 436 120 25 4
52 9 61 10 30 6 251 41 314 50 22 3 54 7 70 10 50 8 108 16 150 21 22 2 54 7
70 9 34 5 73 10 230 30 26 4 135 16 255 30 47 6 122 13 200 20 36 4 83 8 105
10 22 3 76 7 120 10 44 4 96 8 115 10 19 2 82 7 140 10 58 3 123 8 145 10 22
2 110 6 195 10 85 4 182 8 215 10 90 6 445 6 485 1 38 -6 106 -17 130 -21 8
-2 33 -8 55 -14 l40 -11 1 -113 c1 -118 17 -185 67 -297 52 -115 183 -260 284
-313 470 -247 745 -455 1010 -762 84 -98 243 -314 243 -330 0 -2 13 -23 29
-47 37 -56 119 -212 161 -310 34 -80 61 -105 99 -93 30 9 39 32 48 121 24 256
-8 546 -87 793 -24 76 -24 81 -4 81 20 0 25 -6 116 -125 155 -203 266 -377
372 -582 43 -83 54 -94 87 -88 33 6 49 32 44 69 -3 17 -7 47 -9 66 -7 52 -15
96 -38 190 -11 47 -22 94 -24 104 -5 29 -64 206 -80 241 -7 17 -25 59 -40 95
-87 212 -281 523 -449 719 -16 20 -41 49 -55 66 -55 66 -311 316 -395 385 -49
41 -92 77 -95 80 -5 5 -143 108 -191 143 -212 152 -554 357 -597 357 -11 0
-42 9 -69 21 -54 23 -261 93 -338 114 -27 8 -115 32 -195 55 -137 38 -487 123
-561 135 -19 3 -45 8 -59 10 -82 17 -176 33 -225 40 -22 3 -62 10 -90 15 -27
5 -77 12 -110 16 -94 11 -118 14 -150 18 -16 3 -64 8 -105 12 -41 3 -91 8
-110 10 -139 13 -321 22 -500 24 l-145 1 30 25 c17 14 46 37 65 52 19 15 44
35 54 45 11 9 25 17 30 17 188 5 510 66 851 160 138 38 382 132 475 183 70 38
106 56 160 79 312 131 639 332 857 526 239 213 378 384 385 472 3 36 9 41 219
185 612 418 1095 881 1391 1335 181 277 295 535 362 820 25 107 29 126 51 285
13 90 13 457 1 540 -3 22 -8 56 -11 75 -68 472 -263 937 -562 1340 -163 221
-425 486 -638 647 -226 172 -408 287 -645 409 -256 133 -455 213 -840 341
-320 106 -310 102 -434 161 -150 71 -207 112 -309 217 -205 211 -239 569 -73
761 l32 36 189 3 c185 3 317 10 420 20 28 3 70 8 95 10 43 4 237 31 290 41
386 66 815 251 1031 444 51 45 55 69 15 95 -19 13 -66 12 -86 0 -29 -18 -321
-27 -430 -13 -88 11 -227 55 -336 107 l-101 48 -20 65 c-49 161 -242 353 -471
467 -77 39 -217 85 -304 102 -59 11 -301 22 -309 15z m376 -426 c27 0 84 -61
111 -117 20 -43 27 -77 31 -149 8 -125 -20 -218 -84 -281 -38 -39 -47 -43 -91
-43 -43 0 -54 5 -87 37 -119 116 -122 396 -5 513 37 37 70 51 98 44 8 -2 20
-4 27 -4z m-835 -5720 c101 -17 115 -20 195 -46 169 -54 357 -163 494 -285
114 -102 243 -422 266 -658 5 -58 6 -309 1 -336 -2 -11 -7 -42 -10 -70 -25
-178 -105 -418 -200 -600 -40 -77 -79 -158 -86 -180 -29 -91 -307 -402 -540
-605 -41 -36 -77 -67 -80 -70 -16 -18 -176 -148 -334 -273 -146 -116 -157
-124 -186 -146 -14 -11 -97 -75 -185 -143 -88 -68 -207 -159 -265 -203 -58
-44 -112 -85 -120 -92 -19 -15 -426 -329 -470 -363 -178 -136 -506 -394 -512
-403 -14 -22 -8 -50 14 -74 25 -27 49 -29 108 -8 57 20 375 103 425 111 22 3
43 8 46 10 4 2 24 6 45 9 22 3 59 10 84 15 25 5 81 14 125 20 44 6 96 13 115
16 37 5 86 11 190 20 136 13 613 12 695 -1 44 -7 125 -16 180 -19 55 -4 107
-9 115 -11 8 -2 51 -6 95 -10 44 -3 98 -8 120 -10 43 -5 134 -13 230 -20 33
-3 85 -10 115 -15 65 -12 95 -17 175 -31 33 -6 71 -12 85 -15 14 -2 117 -20
230 -39 259 -45 346 -63 385 -79 26 -12 60 -26 75 -31 3 -1 19 -7 35 -14 17
-7 53 -21 81 -32 93 -35 434 -274 653 -458 186 -156 595 -561 567 -561 -4 0
-33 17 -64 38 -31 21 -64 42 -72 45 -8 4 -42 23 -75 43 -65 38 -201 104 -215
104 -4 0 -53 23 -109 51 -68 34 -107 48 -121 44 -32 -10 -28 -26 57 -205 51
-106 123 -278 123 -292 0 -5 -7 -3 -15 6 -9 8 -37 32 -63 53 -26 21 -49 40
-52 43 -4 5 -63 49 -185 138 -5 4 -61 41 -124 82 -173 113 -306 259 -389 425
-52 105 -75 179 -73 234 1 39 -3 48 -37 80 -88 84 -248 132 -517 156 -60 5
-480 17 -650 18 -107 1 -352 -9 -445 -18 -19 -1 -78 -6 -130 -10 -52 -3 -108
-8 -125 -10 -16 -3 -52 -7 -80 -9 -64 -7 -141 -15 -185 -21 -19 -3 -57 -7 -85
-11 -53 -6 -61 -7 -166 -24 -37 -5 -111 -12 -165 -15 -130 -6 -280 -21 -409
-42 -29 -4 -291 -48 -350 -58 -27 -4 -56 -9 -189 -30 -22 -4 -58 -9 -80 -11
-23 -3 -52 -7 -65 -9 -14 -2 -54 -7 -90 -10 -36 -3 -77 -8 -91 -10 -14 -3 -98
-7 -187 -10 -185 -6 -193 -4 -234 67 -20 36 -24 56 -24 128 0 74 4 92 29 140
32 62 81 124 172 220 256 269 413 516 553 867 34 87 128 364 136 403 2 8 19
76 39 151 31 117 85 364 100 454 2 17 8 50 11 75 4 25 9 52 10 61 2 9 6 40 10
70 3 30 8 65 10 79 6 36 20 175 30 295 46 551 66 691 130 913 78 274 189 461
379 644 190 184 435 309 716 365 8 1 49 5 90 9 41 3 76 7 78 9 6 5 181 -6 232
-15z m-3810 -3594 c121 -32 171 -53 236 -99 36 -24 43 -36 52 -80 14 -74 6
-134 -28 -202 -40 -82 -93 -136 -170 -175 -36 -18 -87 -45 -115 -60 -185 -101
-712 -369 -930 -472 -452 -214 -835 -377 -1330 -564 -241 -92 -229 -85 -258
-146 -28 -59 -44 -129 -63 -273 -3 -27 -8 -53 -10 -56 -3 -5 -6 -23 -20 -104
-3 -16 -9 -46 -14 -65 -7 -29 -30 -122 -45 -190 -18 -78 -86 -307 -131 -440
-127 -378 -367 -896 -479 -1035 -181 -225 -321 -374 -450 -476 -39 -31 -124
-91 -190 -134 -66 -43 -133 -88 -149 -102 -72 -60 -375 -191 -661 -284 -99
-32 -207 -67 -240 -78 l-60 -20 65 57 c159 140 290 289 290 329 0 23 -29 52
-56 57 -37 7 -139 19 -145 18 -7 -1 -70 -8 -164 -17 -33 -3 -69 -8 -80 -10
-11 -3 -45 -7 -75 -10 -30 -3 -68 -7 -85 -9 -16 -2 -61 -7 -100 -11 -38 -4
-74 -10 -80 -13 -5 -3 -7 -2 -3 2 6 7 131 67 303 146 76 35 330 139 465 190
74 28 143 55 152 61 10 5 25 9 33 9 8 0 23 4 33 9 25 14 136 48 214 66 71 16
91 15 238 -17 159 -33 181 -33 235 8 66 51 162 168 220 267 28 48 85 135 128
194 167 231 280 427 380 659 89 208 156 423 197 634 18 92 21 112 35 210 3 25
8 61 11 80 10 64 12 524 3 600 -14 117 -12 161 9 222 45 129 139 226 287 298
89 43 125 56 365 136 149 50 420 155 445 174 6 4 28 13 50 20 85 27 207 96
388 218 244 165 320 213 446 284 179 101 396 198 456 205 22 3 42 7 45 10 10
11 297 -7 350 -21z"/>
</g>
</svg>
