<?xml version="1.0" encoding="utf-8"?>
<!-- Generator: Adobe Illustrator 21.1.0, SVG Export Plug-In . SVG Version: 6.00 Build 0)  -->
<svg version="1.1" id="Calque_1" xmlns="http://www.w3.org/2000/svg" xmlns:xlink="http://www.w3.org/1999/xlink" x="0px" y="0px"
	 viewBox="0 0 1356.4 1362" style="enable-background:new 0 0 1356.4 1362;" xml:space="preserve">
<style type="text/css">
	.st0{fill:none;}
</style>
<title>Fichier 1</title>
<g id="Calque_2">
	<g id="Calque_2-2">
		<path class="st0" d="M861.3,431.1l0.1,0.2l0.2-0.3L861.3,431.1z"/>
		<path class="st0" d="M168.4,531.6l-0.2-0.5L168.4,531.6L168.4,531.6z"/>
		<path class="st0" d="M1170.7,228.2"/>
		<path class="st0" d="M172.2,1284.4l-106-643.5l-1.3-50.2l13.8,49.8l109,661.4c3.6,3.2,7.5,6,11.6,8.3L79.2,580.9l-1.3-50.2
			l13.8,49.8l120.5,731.7c5.9,0,11.8-0.7,17.5-2.3l-121.5-738l-1.3-50.2l13.8,49.8l120.6,731.9c5.4-3.6,10.3-8,14.4-13L137.2,570.9
			l-1.3-50.2l13.8,49.8l115.9,703.4c2-4.7,3.6-9.6,4.8-14.6c0.3-15.5,0.5-31,0.7-46.4l-83.8-509l-1.3-50.2l13.8,49.8l71.7,435
			c-0.1-24.6-0.4-49.2-1-73.8c-0.8-32.9-2.1-65.8-4.2-98.7c-1.7-12.5-3.6-25.1-5.6-37.6c-15.1-93.9-36.9-186.7-65.1-277.5
			c-14-45.1-29.7-89.7-47.1-133.8c-11.7-29.6-25.4-58.9-45.3-83.6c-3.3-2.4-6.8-4.4-10.4-6.1c-18.5-8.6-39-5.2-51.5,11.4
			c-4.5,6-7.7,12.9-10.3,19.9c-6.6,30.3-10.7,61-12.4,92c-3.2,54.6-0.3,109.3,3.9,163.8c4.1,53.5,8.8,106.9,15.6,160.1
			c11.4,89.7,29.4,178.5,60,263.5l-56.8-345l-1.3-50.2l13.8,49.8l64,388.6c4.3,9.2,8.7,18.4,13.1,27.5L45.2,688.9l-1.3-50.2
			l13.8,49.8l91.9,557.9c3.4,6.5,6.9,12.9,10.6,19.2C163.9,1272.1,167.9,1278.3,172.2,1284.4z"/>
		<path class="st0" d="M1042.3,240.1c7.5-0.4,14-5,19.2-10c10.9-10.3,21.9-25.2,22.5-40.7c0.5-11.9-8.8-26.5-21.7-25.3
			c-11,6.1-18.6,16.2-24.4,27.6c-3,5.9-5.6,12.1-7.8,18.3c-2.4,6.7-6.8,15.9-3.1,22.8C1029.8,238.2,1036.5,240.4,1042.3,240.1z"/>
		<path class="st0" d="M1060.5,626.2h-0.7l0,0l1,0.1L1060.5,626.2z"/>
		<rect x="1039.2" y="1127.5" class="st0" width="279.2" height="196.5"/>
		<path class="st0" d="M1293.1,719l-74.1-182l-167.2,68.1c31.5,19.1,64.8,34.9,99.6,47.2c7.2,2.6,5.5,12-1.7,12.8
			c-13.9,1.6-27.7,3.1-41.6,4.6l52.6,31.4c4.6,2.8,4,10.6-1.6,11.9c-15.3,3.5-31.2,4-46.7,1.4c6.7,8.7,14,16.9,21.8,24.6
			c5.1,5-0.4,11.7-6.3,10.8c-9.9-1.4-19.7-3.9-29-7.6l0.6,1.4c1.8,4.3-3.6,9.7-7.9,7.9c-24.4-9.8-48.9-19.6-73.6-28.8
			c-9.6-3.6-19.3-7.1-29-10.5l45.6,111.9L1293.1,719z"/>
		<rect x="1039.2" y="889.5" class="st0" width="279.2" height="196.5"/>
		<path class="st0" d="M315.4,1335.7h-0.1H315.4L315.4,1335.7z"/>
		<path class="st0" d="M779.1,1348.8l-1.1,0.2h1.3L779.1,1348.8z"/>
		<path d="M1068.8,851.5l273.9-111.6l-102.8-252.3l-226.3,92.2c-34.4-25-65.8-53.8-93.8-85.8c-15.9-18.2-30.1-37.8-44.7-57
			c0.2-0.1,0.3-0.2,0.5-0.3c3.3-1.3,6.8-2.5,10.2-3.5l22.6-7.5l44.3-14.7c7-2.3,14-5.2,21.2-6.6c7.4-1.5,14.7,0,22,1.1
			c14.7,2,29.7,1.9,44.4-0.3c50.4-7.1,98.4-32.4,136.1-66c19.9-17.7,37.2-38.2,50.3-61.4c2-1.5,2.8-4.1,1.9-6.5
			c-18.7-57.3-52.7-108.5-98.2-148c-48.4-41.9-108-68.7-171.5-77.1c-18.3-2.5-36.8-3.4-55.2-2.8c-9.3,0.3-18.6,1.2-27.8,2.5
			c-6.3,0.9-12.9,1.7-19.1,3.6c-0.6-0.6-1.3-1.1-2-1.6c-2.2-1.5-4.5-3-6.7-4.6c-9.8-8.5-20-16.6-30.7-24C806.4,11.6,794,0.6,780,0
			c-23.9-1-35,27.4-35.2,47.2c-0.1,8.8,1,17.6,3.2,26.1c-3.4,1.1-6.7,2.4-10,3.6c-6.5,2.4-12.8,5.2-19,8.2
			c-12.7,6.4-24.9,13.9-36.2,22.6c-22.5,17.3-41.9,38.2-57.5,61.9c-4.2,6.5-8.2,13.1-11.8,20c-2.4,4.6-5,9.3-7.2,14.2
			c-38,1.1-76.2,9.1-112.6,19.4c-36.8,10.3-72.4,24.4-106.3,41.9c-65.1,33.9-122.5,83.4-161.3,146.1c-20,32.3-34.8,67.8-42.5,105
			c-3-7-6-14-9.1-20.9c-7.9-17.6-16.4-35-25.4-52.1c-8.3-15.7-17.6-31.7-31.3-43.3c-12.7-10.8-29.4-17.6-46.3-15.8
			s-29.2,12.5-37.5,26.7c-11.9,13.6-18.7,31.9-22.7,49.3c-2.9,13.3-5,26.9-6.3,40.5c-1.1,7.4-1.9,14.7-2.4,22.1
			c-0.5,7.8-0.8,15.5-0.6,23.2c-0.2,3.6-0.3,7.1-0.5,10.7C-1.9,629.7,0.5,703.1,7.2,776c0.5,12.2,1.1,24.5,1.9,36.7
			c4.4,72.3,12.7,144.7,28.1,215.5c7.5,62.2,26.6,122.5,56.1,177.7c3.4,6.4,7,12.7,10.8,19c3.9,7.9,7.9,15.8,12.1,23.6l0.6,3.3
			l1.1-0.2c13,24,27.4,47.2,43.3,69.5c3.9,10.6,15.2,27.9,24.4,33.5c7.2,4.4,7,5.8,15.3,7.3c0.9,0.7,10,0,10,0s259.7-1.1,386,0
			c79.1,0.7,159.4-0.1,240.3,0.3c1.9,0.1,3.8,0.1,5.7,0c41.7,0.2,83.5,0.4,125,0.5v-2c3,0,5.5-2.5,5.5-5.5c0-0.8-0.2-1.5-0.5-2.2
			c0.2-0.6,0.3-1.2,0.2-1.8c-0.1-3.1-0.6-6.2-1.3-9.2c0-0.2,0-0.4,0-0.6c-1.7-15.6-15.3-29.2-28.1-37.9l-0.6-0.5
			c-6.5-4.8-13.8-8.1-21.4-11c-7-2.6-14.2-4.7-21.6-6.1c-4.8-1.1-9.6-2.1-14.4-3c-43.2-8.2-86.6-15.9-130-23.2
			c-11.9-2-23.8-3.7-35.9-3.8h-2.7c32.4-18.1,63.7-38.1,93.7-60c47.5-34.8,92.9-74.1,126.3-123c33.1-48.5,53.8-108.3,47.3-167.5
			c-6-55.2-35.3-104.7-74.8-142.8c-41.5-40.1-93.4-67.4-146.6-88.6c0.4-1.1,0.8-2.1,1.2-3.2c60.3-2.1,119.7,9.2,177.4,26.3
			l62.9,154.3h-3.4V1362h355.2V851.5H1068.8z M1030.1,210c2.2-6.3,4.8-12.4,7.8-18.3c5.8-11.4,13.5-21.5,24.4-27.6
			c12.9-1.2,22.2,13.4,21.7,25.3c-0.6,15.6-11.7,30.4-22.5,40.7c-5.2,5-11.8,9.6-19.2,10c-5.8,0.3-12.5-1.9-15.3-7.3
			C1023.3,225.9,1027.6,216.7,1030.1,210z M861.3,431.1l0.3-0.1l-0.2,0.3L861.3,431.1z M1059.8,626.2h0.7l0.4,0.1L1059.8,626.2
			L1059.8,626.2z M168.4,531.6L168.4,531.6l-0.2-0.5L168.4,531.6z M57.7,688.5l-13.8-49.8l1.3,50.2l85.6,519.8
			c-4.4-9.2-8.8-18.3-13.1-27.5l-64-388.7l-13.8-49.8l1.3,50.2l56.8,345C67.4,1053,49.4,964.2,38,874.5
			c-6.8-53.2-11.6-106.7-15.6-160.2c-4.1-54.5-7-109.2-3.9-163.8c1.6-31,5.8-61.7,12.4-92c2.6-7,5.7-13.9,10.3-19.9
			c12.5-16.6,32.9-20,51.5-11.4c3.7,1.7,7.1,3.8,10.4,6.1c19.9,24.8,33.6,54,45.3,83.6c17.4,44,33.1,88.6,47.1,133.8
			c28.3,90.9,50.1,183.6,65.2,277.6c2,12.5,3.9,25,5.6,37.6c2.1,32.9,3.4,65.8,4.2,98.7c0.6,24.6,0.9,49.2,1,73.8l-71.7-435
			l-13.8-49.8l1.3,50.2l83.8,509c-0.2,15.5-0.4,31-0.7,46.4c-1.1,5-2.7,9.9-4.8,14.6L149.7,570.5l-13.8-49.8l1.3,50.2l118.5,719.5
			c-4.1,5-9,9.4-14.4,13L120.7,571.5l-13.8-49.8l1.3,50.2l121.5,738c-5.7,1.5-11.6,2.3-17.5,2.3L91.7,580.5l-13.8-49.8l1.3,50.2
			l120.1,729.4c-4.2-2.4-8.1-5.1-11.6-8.3l-109-661.4l-13.8-49.8l1.3,50.2l106,643.5c-4.3-6-8.3-12.3-12-18.7
			c-3.7-6.3-7.2-12.8-10.6-19.2L57.7,688.5z M315.4,1335.7L315.4,1335.7h-0.1H315.4z M779.1,1348.8l0.2,0.1H778L779.1,1348.8z
			 M1018,723c24.7,9.2,49.1,18.9,73.5,28.8c4.3,1.8,9.7-3.6,7.9-7.9l-0.6-1.4c9.3,3.6,19.1,6.2,29,7.6c6,0.8,11.4-5.8,6.3-10.8
			c-7.8-7.7-15.1-15.9-21.8-24.6c15.5,2.6,31.4,2.1,46.7-1.4c5.6-1.3,6.2-9.1,1.6-11.9l-52.7-31.4c13.9-1.5,27.7-3.1,41.6-4.6
			c7.2-0.8,9-10.3,1.7-12.8c-34.7-12.3-68.1-28.1-99.6-47.2l167.3-68.1l74.2,182l-258.6,105.3L989,712.5
			C998.7,715.9,1008.4,719.4,1018,723z M1318.4,1324h-279.2v-196.5h279.2V1324z M1318.4,889.5V1086h-279.2V889.5H1318.4z"/>
	</g>
</g>
</svg>
